<?xml version="1.0" encoding="utf-8"?>
<!-- Generator: Adobe Illustrator 19.2.0, SVG Export Plug-In . SVG Version: 6.00 Build 0)  -->
<svg version="1.1" xmlns="http://www.w3.org/2000/svg" xmlns:xlink="http://www.w3.org/1999/xlink" x="0px" y="0px"
	 viewBox="0 0 500 500" style="enable-background:new 0 0 500 500;" xml:space="preserve">
<g id="facebook">
	<g >
		<path d="M472.7,117.51L259.71,2.38C256.79,0.8,253.66,0,250.4,0c-3.28,0-6.53,0.83-9.41,2.38L27.7,117.51
			c-6.53,3.53-10.59,10.2-10.59,17.42v230.2c0,7.22,4.06,13.89,10.59,17.42l213.19,115.08c2.88,1.55,6.15,2.37,9.46,2.37
			c3.29,0,6.55-0.82,9.43-2.37l8.27-4.47V328.46h-56.1v-64.97h56.1v-47.91c0-55.6,33.96-85.88,83.56-85.88
			c23.76,0,44.18,1.77,50.13,2.56v58.11l-34.4,0.02c-26.98,0-32.2,12.82-32.2,31.63v41.48h64.34l-8.38,64.97h-55.96v128.43
			l137.54-74.35c6.29-3.4,10.2-10.08,10.2-17.42v-230.2C482.89,127.57,478.99,120.9,472.7,117.51z"/>
	</g>
	<g style='opacity:0;'>
		<path d="M472.7,117.51L259.71,2.38C256.79,0.8,253.66,0,250.4,0c-3.28,0-6.53,0.83-9.41,2.38L27.7,117.51
			c-6.53,3.53-10.59,10.2-10.59,17.42v230.2c0,7.22,4.06,13.89,10.59,17.42l213.19,115.08c2.88,1.55,6.15,2.37,9.46,2.37
			c3.29,0,6.55-0.82,9.43-2.37l212.9-115.08c6.29-3.4,10.2-10.08,10.2-17.42v-230.2C482.89,127.57,478.99,120.9,472.7,117.51z"/>
	</g>
</g>
<g id="instagram">
	<g>
		<path d="M140.13,195.45c-0.3,6.64-0.49,11.19-0.61,17.73c-0.14,7.48-0.18,17.59-0.18,36.81
			c0,19.23,0.04,29.33,0.18,36.81c0.12,6.54,0.31,11.09,0.61,17.73c0.6,13.16,2.8,20.31,4.65,25.07c2.45,6.3,5.38,10.8,10.1,15.52
			c4.73,4.73,9.22,7.65,15.52,10.1c4.75,1.85,11.9,4.04,25.06,4.64c14.23,0.65,18.5,0.79,54.54,0.79c36.04,0,40.32-0.14,54.55-0.79
			c13.16-0.6,20.31-2.79,25.06-4.64c6.3-2.45,10.8-5.37,15.52-10.1c4.72-4.72,7.64-9.22,10.1-15.52c1.85-4.76,4.05-11.9,4.65-25.07
			c0.3-6.64,0.49-11.19,0.61-17.73c0.13-7.48,0.18-17.59,0.18-36.81c0-19.23-0.04-29.33-0.18-36.81c-0.12-6.54-0.3-11.09-0.61-17.73
			c-0.6-13.16-2.8-20.31-4.65-25.06c-0.47-1.22-1.1-2.13-1.62-3.22c-2.17-4.59-4.67-8.49-8.48-12.3c-4.73-4.72-9.22-7.65-15.52-10.1
			c-4.76-1.85-11.91-4.05-25.06-4.65c-14.24-0.65-18.51-0.79-54.55-0.79c-36.04,0-40.31,0.14-54.54,0.79
			c-13.16,0.6-20.31,2.8-25.06,4.65c-6.3,2.45-10.8,5.37-15.52,10.1c-3.81,3.81-6.32,7.72-8.48,12.3c-0.52,1.1-1.15,2.01-1.62,3.22
			C142.92,175.15,140.73,182.29,140.13,195.45z M319.32,250c0,13.57-4.05,26.13-10.78,36.81c-12.27,19.47-33.81,32.5-58.53,32.5
			c-24.72,0-46.26-13.03-58.53-32.5c-6.74-10.69-10.78-23.25-10.78-36.81c0-13.57,4.05-26.12,10.78-36.81
			c12.27-19.47,33.82-32.5,58.53-32.5c24.72,0,46.26,13.03,58.53,32.5C315.27,223.88,319.32,236.43,319.32,250z M322.06,161.75
			c4.77,0,8.95,2.14,11.91,5.42c2.6,2.87,4.29,6.6,4.29,10.77c0,8.94-7.25,16.2-16.2,16.2c-8.94,0-16.2-7.26-16.2-16.2
			c0-4.18,1.69-7.9,4.29-10.77C313.11,163.89,317.29,161.75,322.06,161.75z"/>
		<path d="M205.01,250c0,15.25,7.63,28.68,19.23,36.81c7.31,5.12,16.16,8.18,25.76,8.18s18.45-3.06,25.76-8.18
			C287.37,278.68,295,265.25,295,250c0-15.25-7.63-28.68-19.24-36.81C268.45,208.07,259.6,205,250,205c-9.6,0-18.45,3.06-25.76,8.18
			C212.64,221.32,205.01,234.75,205.01,250z"/>
		<path d="M250.4,0c-3.28,0-6.53,0.83-9.41,2.38L27.7,117.51c-6.53,3.53-10.59,10.21-10.59,17.42v230.2
			c0,7.22,4.06,13.89,10.59,17.42l213.19,115.08c2.88,1.55,6.15,2.37,9.46,2.37c3.29,0,6.55-0.82,9.43-2.37l212.9-115.08
			c6.29-3.4,10.2-10.07,10.2-17.42v-230.2c0-7.35-3.9-14.02-10.18-17.42L259.71,2.38C256.79,0.8,253.66,0,250.4,0z M338.42,122.1
			c8.87,3.45,16.4,8.07,23.91,15.57c7.5,7.51,12.12,15.03,15.57,23.91c0.69,1.79,1.31,3.67,1.91,5.59
			c2.28,7.32,3.85,15.8,4.37,27.17c0.32,6.98,0.52,11.7,0.64,18.84c0.13,7.59,0.17,17.92,0.17,36.81c0,18.89-0.04,29.22-0.17,36.81
			c-0.12,7.14-0.32,11.86-0.64,18.84c-0.65,14.37-2.94,24.18-6.27,32.76c-3.45,8.88-8.07,16.41-15.57,23.91
			c-7.5,7.51-15.04,12.12-23.91,15.57c-8.59,3.34-18.4,5.62-32.77,6.27c-14.4,0.66-18.99,0.82-55.66,0.82
			c-36.66,0-41.25-0.16-55.65-0.82c-14.37-0.65-24.18-2.93-32.77-6.27c-8.88-3.45-16.4-8.06-23.91-15.57
			c-7.51-7.5-12.12-15.03-15.57-23.91c-3.34-8.58-5.62-18.39-6.27-32.76c-0.32-6.98-0.52-11.7-0.64-18.84
			c-0.13-7.59-0.18-17.92-0.18-36.81c0-18.89,0.04-29.22,0.18-36.81c0.12-7.14,0.32-11.86,0.64-18.84
			c0.52-11.38,2.08-19.85,4.36-27.17c0.6-1.92,1.22-3.8,1.91-5.59c3.45-8.88,8.06-16.4,15.57-23.91c7.5-7.5,15.03-12.12,23.91-15.57
			c8.59-3.34,18.4-5.62,32.77-6.27c14.4-0.66,18.99-0.82,55.65-0.82c36.66,0,41.26,0.16,55.66,0.82
			C320.02,116.48,329.84,118.76,338.42,122.1z"/>
	</g>
	<g style='opacity:0;'>
		<path d="M472.7,117.51L259.71,2.38C256.79,0.8,253.66,0,250.4,0c-3.28,0-6.53,0.83-9.41,2.38L27.7,117.51
			c-6.53,3.53-10.59,10.2-10.59,17.42v230.2c0,7.22,4.06,13.89,10.59,17.42l213.19,115.08c2.88,1.55,6.15,2.37,9.46,2.37
			c3.29,0,6.55-0.82,9.43-2.37l212.9-115.08c6.29-3.4,10.2-10.08,10.2-17.42v-230.2C482.89,127.57,478.99,120.9,472.7,117.51z"/>
	</g>
</g>
<g id="mail">
	<path d="M472.7,117.51L259.71,2.38C256.79,0.8,253.66,0,250.4,0c-3.28,0-6.53,0.83-9.41,2.38L27.7,117.51
		c-6.53,3.53-10.59,10.21-10.59,17.42v230.2c0,7.22,4.06,13.89,10.59,17.42l213.19,115.08c2.88,1.55,6.15,2.37,9.46,2.37
		c3.29,0,6.55-0.82,9.43-2.37l212.9-115.08c6.29-3.4,10.2-10.08,10.2-17.42v-230.2C482.89,127.58,478.99,120.91,472.7,117.51z
		 M154.87,151.19h190.27c23.9,0,44.22,16.01,50.82,37.82L250,273.28l-145.95-84.27C110.65,167.19,130.97,151.19,154.87,151.19z
		 M345.13,348.81H154.87c-29.2,0-53.09-23.89-53.09-53.09v-86.4l143.54,82.87c1.45,0.83,3.06,1.25,4.68,1.25
		c1.62,0,3.23-0.42,4.68-1.25l143.54-82.87v86.4C398.22,324.93,374.33,348.81,345.13,348.81z"/>
	<g style='opacity:0;'>
		<path d="M472.7,117.51L259.71,2.38C256.79,0.8,253.66,0,250.4,0c-3.28,0-6.53,0.83-9.41,2.38L27.7,117.51
			c-6.53,3.53-10.59,10.2-10.59,17.42v230.2c0,7.22,4.06,13.89,10.59,17.42l213.19,115.08c2.88,1.55,6.15,2.37,9.46,2.37
			c3.29,0,6.55-0.82,9.43-2.37l212.9-115.08c6.29-3.4,10.2-10.08,10.2-17.42v-230.2C482.89,127.57,478.99,120.9,472.7,117.51z"/>
	</g>
</g>
<g id="soundcloud">
	<g>
		<path d="M472.7,117.51L259.71,2.38C256.79,0.8,253.66,0,250.4,0c-3.27,0-6.53,0.83-9.41,2.38L27.7,117.51
			c-6.53,3.53-10.59,10.21-10.59,17.42v230.2c0,7.22,4.06,13.89,10.59,17.42l213.19,115.08c2.88,1.55,6.15,2.37,9.46,2.37
			c3.29,0,6.55-0.82,9.43-2.37l212.9-115.08c6.29-3.4,10.2-10.08,10.2-17.42v-230.2C482.89,127.58,478.99,120.91,472.7,117.51z
			 M81.22,290.38c-0.12,0.8-0.69,1.35-1.39,1.35c-0.73,0-1.3-0.56-1.4-1.36l-2.54-19.01l2.54-19.34c0.1-0.8,0.67-1.36,1.4-1.36
			c0.7,0,1.28,0.56,1.39,1.36l3.02,19.35L81.22,290.38z M94.14,301.95c-0.12,0.83-0.71,1.41-1.44,1.41c-0.74,0-1.35-0.6-1.45-1.41
			l-3.42-30.58l3.42-31.27c0.1-0.81,0.71-1.41,1.45-1.41c0.73,0,1.33,0.58,1.45,1.41l3.89,31.27L94.14,301.95z M108.12,307.12
			c-0.11,0.99-0.84,1.71-1.74,1.71c-0.92,0-1.65-0.72-1.75-1.71l-3.25-35.75l3.25-37.11c0.09-0.99,0.83-1.71,1.75-1.71
			c0.91,0,1.64,0.72,1.75,1.71l3.69,37.11L108.12,307.12z M122.21,308.25c-0.1,1.14-0.97,2-2.04,2c-1.08,0-1.96-0.86-2.04-2
			l-3.07-36.88l3.07-38.12c0.08-1.15,0.96-2.01,2.04-2.01c1.07,0,1.95,0.86,2.04,2.01l3.49,38.13L122.21,308.25z M136.41,308.56
			c-0.1,1.31-1.1,2.3-2.34,2.3c-1.26,0-2.26-0.99-2.34-2.3l-2.9-37.19l2.9-35.36c0.08-1.32,1.08-2.31,2.34-2.31
			c1.24,0,2.25,0.99,2.34,2.29l3.29,35.38L136.41,308.56z M150.73,308.57L150.73,308.57c-0.08,1.45-1.24,2.6-2.64,2.6
			c-1.41,0-2.56-1.15-2.63-2.6l-2.72-37.19l2.72-57.54c0.07-1.46,1.23-2.61,2.63-2.61c1.4,0,2.55,1.15,2.64,2.61l3.08,57.54
			L150.73,308.57z M165.16,308.33c-0.08,1.63-1.37,2.91-2.93,2.91c-1.58,0-2.87-1.28-2.93-2.89l-2.55-36.95l2.55-70.7
			c0.07-1.63,1.36-2.91,2.94-2.91c1.57,0,2.86,1.28,2.93,2.91l2.88,70.7L165.16,308.33z M179.7,307.96c-0.07,1.8-1.49,3.2-3.23,3.2
			c-1.76,0-3.17-1.41-3.23-3.19l-2.37-36.57l2.37-76.6c0.06-1.8,1.48-3.21,3.23-3.21c1.74,0,3.16,1.41,3.23,3.2l2.67,76.6
			L179.7,307.96z M194.34,307.74L194.34,307.74v0.02V307.74c-0.07,1.96-1.61,3.5-3.53,3.5c-1.92,0-3.48-1.54-3.53-3.48l-2.2-36.34
			l2.19-79.18c0.06-1.97,1.61-3.51,3.53-3.51c1.92,0,3.47,1.54,3.53,3.51l2.47,79.18L194.34,307.74z M209.11,307.42v-0.03
			c-0.06,2.13-1.74,3.81-3.82,3.81c-2.1,0-3.78-1.67-3.83-3.79l-2.02-36l2.02-77.16c0.05-2.13,1.73-3.8,3.83-3.8
			c2.08,0,3.77,1.67,3.82,3.8l2.27,77.16L209.11,307.42z M223.98,307.19v-0.03c-0.05,2.3-1.86,4.1-4.12,4.1
			c-2.27,0-4.08-1.8-4.13-4.08l-1.84-35.77l1.84-74.34c0.05-2.3,1.86-4.11,4.13-4.11c2.26,0,4.07,1.8,4.12,4.1l2.07,74.35
			L223.98,307.19z M238.97,306.94v0.03V306.94c-0.04,2.42-2.02,4.4-4.42,4.4c-2.4,0-4.38-1.98-4.42-4.38c0,0-1.67-35.51-1.67-35.56
			l1.67-88.44c0.03-2.43,2.01-4.4,4.42-4.4c2.4,0,4.38,1.97,4.42,4.4l1.86,88.47L238.97,306.94z M253.89,306.46v-0.04
			c-0.04,2.59-2.15,4.71-4.71,4.71c-2.57,0-4.69-2.11-4.72-4.67l-1.93-35.02l1.93-96.49c0.04-2.59,2.15-4.71,4.72-4.71
			c2.56,0,4.68,2.12,4.71,4.7l2.1,96.5L253.89,306.46z M381.28,311.43c-0.76,0-118.62-0.06-118.73-0.07
			c-2.56-0.26-4.59-2.44-4.62-5.06V170.36c0.03-2.5,0.89-3.79,4.12-5.04c8.32-3.22,17.74-5.12,27.4-5.12
			c39.49,0,71.85,30.28,75.26,68.88c5.1-2.13,10.7-3.32,16.57-3.32c23.66,0,42.83,19.18,42.83,42.83
			C424.12,292.26,404.94,311.43,381.28,311.43z"/>
	</g>
	<g style='opacity:0;'>
		<path d="M472.7,117.51L259.71,2.38C256.79,0.8,253.66,0,250.4,0c-3.28,0-6.53,0.83-9.41,2.38L27.7,117.51
			c-6.53,3.53-10.59,10.2-10.59,17.42v230.2c0,7.22,4.06,13.89,10.59,17.42l213.19,115.08c2.88,1.55,6.15,2.37,9.46,2.37
			c3.29,0,6.55-0.82,9.43-2.37l212.9-115.08c6.29-3.4,10.2-10.08,10.2-17.42v-230.2C482.89,127.57,478.99,120.9,472.7,117.51z"/>
	</g>
</g>
</svg>
