<?xml version="1.0" encoding="utf-8"?>
<!-- Generator: Adobe Illustrator 19.2.0, SVG Export Plug-In . SVG Version: 6.00 Build 0)  -->
<svg version="1.1" xmlns="http://www.w3.org/2000/svg" xmlns:xlink="http://www.w3.org/1999/xlink" x="0px" y="0px"
	 viewBox="0 0 500 500" style="enable-background:new 0 0 500 500;" xml:space="preserve">
<symbol id="logo">
	<symbol>
		<path d="M250.38,15.86c-2.75,0-5.48,0.69-7.9,2L40.95,126.63c-5.5,2.97-8.91,8.57-8.91,14.62v217.5c0,6.05,3.42,11.66,8.92,14.63
			l201.42,108.73c4.82,2.61,11.03,2.62,15.88,0l201.15-108.73c5.27-2.85,8.54-8.46,8.54-14.63v-217.5c0-6.17-3.27-11.78-8.53-14.62
			L258.19,17.86C255.73,16.53,253.11,15.86,250.38,15.86z"/>
		<path d="M250.35,500.01c-3.64,0-7.24-0.9-10.41-2.61L28.59,383.3c-7.18-3.89-11.64-11.24-11.64-19.19V135.9
			c0-7.95,4.46-15.3,11.64-19.18L240.04,2.59c6.34-3.43,14.19-3.49,20.63,0l211.15,114.13c6.93,3.75,11.24,11.1,11.24,19.18v228.21
			c0,8.09-4.31,15.44-11.25,19.19L260.74,497.39C257.57,499.11,253.98,500.01,250.35,500.01z M250.4,4.32
			c-2.88,0-5.75,0.73-8.29,2.1L30.65,120.56c-5.77,3.11-9.35,9-9.35,15.34v228.21c0,6.35,3.59,12.23,9.36,15.35l211.35,114.09
			c5.06,2.73,11.57,2.75,16.66,0l211.07-114.09c5.53-2.99,8.96-8.87,8.96-15.35V135.9c0-6.48-3.43-12.36-8.95-15.34L258.59,6.42
			C256.02,5.03,253.26,4.32,250.4,4.32z"/>
	</symbol>
</symbol>
</svg>
