<?xml version="1.0" encoding="utf-8"?>
<!-- Generator: Adobe Illustrator 19.2.0, SVG Export Plug-In . SVG Version: 6.00 Build 0)  -->
<svg version="1.1" xmlns="http://www.w3.org/2000/svg" xmlns:xlink="http://www.w3.org/1999/xlink" x="0px" y="0px"
	 viewBox="0 0 500 500" style="enable-background:new 0 0 500 500;" xml:space="preserve">
<g id="play">
	<path d="M406.26,262.99L153.24,409.07c-10,5.77-22.5-1.44-22.5-12.99V103.92c0-11.55,12.5-18.76,22.5-12.99l253.02,146.08
		C416.26,242.78,416.26,257.22,406.26,262.99z"/>
</g>
<g id="pause">
	<path d="M197.75,391.51h-44.5c-8.29,0-15-6.72-15-15V123.49c0-8.29,6.72-15,15-15h44.5c8.29,0,15,6.72,15,15v253.01
		C212.75,384.79,206.03,391.51,197.75,391.51z"/>
	<path d="M331.73,391.51h-44.46c-8.3,0-15.02-6.73-15.02-15.02V123.51c0-8.3,6.73-15.02,15.02-15.02h44.46
		c8.3,0,15.02,6.73,15.02,15.02v252.97C346.76,384.78,340.03,391.51,331.73,391.51z"/>
</g>
</svg>
