<?xml version="1.0" encoding="utf-8"?>
<!-- Generator: Adobe Illustrator 19.2.0, SVG Export Plug-In . SVG Version: 6.00 Build 0)  -->
<svg version="1.1" xmlns="http://www.w3.org/2000/svg" xmlns:xlink="http://www.w3.org/1999/xlink" x="0px" y="0px"
	 viewBox="0 0 283.02 322.2" style="enable-background:new 0 0 283.02 322.2;" xml:space="preserve">
<g id="play">
	<path d="M275.52,174.09L22.5,320.17c-10,5.77-22.5-1.44-22.5-12.99L0,15.02C0,3.48,12.5-3.74,22.5,2.03l253.02,146.08
		C285.52,153.88,285.52,168.32,275.52,174.09z"/>
</g>
<g id="pause">
	<path d="M67,302.61H22.5c-8.29,0-15-6.72-15-15V34.59c0-8.29,6.72-15,15-15H67c8.29,0,15,6.72,15,15v253.01
		C82,295.89,75.29,302.61,67,302.61z"/>
	<path d="M200.99,302.61h-44.46c-8.3,0-15.02-6.73-15.02-15.02V34.61c0-8.3,6.73-15.02,15.02-15.02h44.46
		c8.3,0,15.02,6.73,15.02,15.02v252.97C216.01,295.88,209.29,302.61,200.99,302.61z"/>
</g>
</svg>
