<?xml version="1.0" standalone="no"?>
<!DOCTYPE svg PUBLIC "-//W3C//DTD SVG 20010904//EN"
 "http://www.w3.org/TR/2001/REC-SVG-20010904/DTD/svg10.dtd">
<svg version="1.0" xmlns="http://www.w3.org/2000/svg"
 width="700.000000pt" height="700.000000pt" viewBox="0 0 700.000000 700.000000"
 preserveAspectRatio="xMidYMid meet">
<metadata>
Created by potrace 1.11, written by Peter Selinger 2001-2013
</metadata>
<g transform="translate(0.000000,700.000000) scale(0.100000,-0.100000)"
fill="#000000" stroke="none">
<path d="M3435 6731 c-39 -10 -86 -32 -224 -108 -62 -35 -115 -63 -117 -63 -2
0 -68 -35 -146 -78 -79 -44 -179 -98 -223 -122 -44 -23 -132 -71 -195 -105
-63 -34 -155 -84 -205 -110 -49 -27 -157 -85 -240 -130 -147 -80 -235 -128
-385 -208 -41 -22 -97 -52 -125 -67 -234 -127 -276 -150 -281 -150 -2 0 -21
-10 -42 -23 -20 -13 -82 -47 -137 -77 -169 -90 -201 -107 -287 -154 -46 -24
-116 -62 -156 -84 -99 -52 -151 -98 -187 -163 l-30 -54 0 -1560 0 -1560 22
-45 c33 -68 92 -121 200 -178 54 -29 134 -71 178 -95 44 -24 114 -62 156 -84
42 -23 85 -46 95 -52 41 -22 355 -191 449 -241 55 -29 105 -56 110 -60 6 -4
55 -31 110 -60 55 -29 123 -65 150 -80 68 -37 290 -157 400 -215 50 -26 95
-51 100 -55 6 -4 69 -38 140 -75 72 -38 144 -76 160 -85 77 -43 152 -83 295
-160 85 -45 160 -86 165 -90 6 -4 62 -34 125 -66 108 -55 120 -59 191 -61 83
-2 69 -8 304 117 66 34 125 66 130 70 6 4 44 25 85 47 41 23 215 116 385 208
455 246 517 280 585 317 25 14 90 49 145 78 55 30 116 62 135 73 19 11 69 38
110 60 41 22 104 55 140 75 294 160 518 281 590 319 41 22 113 61 159 87 46
25 85 46 88 46 10 0 99 65 116 85 26 30 54 85 62 125 4 19 7 721 7 1561 0
1208 -2 1535 -12 1565 -16 48 -50 102 -81 130 -20 18 -443 254 -454 254 -2 0
-30 15 -62 34 -32 18 -96 53 -143 78 -47 25 -112 60 -145 78 -33 18 -91 49
-130 70 -38 21 -90 49 -115 62 -43 24 -74 41 -250 135 -41 23 -178 97 -305
165 -126 69 -270 147 -320 173 -85 45 -116 63 -217 119 -24 13 -83 45 -133 71
-49 26 -112 60 -140 75 -27 15 -79 43 -115 62 -36 20 -115 63 -177 96 -163 89
-220 104 -308 83z m446 -220 c167 -90 327 -176 354 -191 143 -77 191 -103 253
-136 37 -20 90 -49 117 -64 79 -43 153 -83 250 -135 50 -26 95 -51 100 -55 6
-4 64 -35 130 -70 66 -35 125 -66 130 -70 6 -4 60 -33 120 -65 61 -32 115 -61
120 -65 6 -4 51 -29 100 -55 87 -46 155 -83 260 -140 28 -15 79 -43 115 -62
36 -20 92 -50 125 -68 33 -18 96 -52 140 -75 212 -113 249 -142 279 -218 15
-39 16 -171 14 -1580 -3 -1418 -4 -1540 -20 -1574 -30 -67 -64 -91 -298 -216
-47 -25 -116 -62 -153 -84 -38 -21 -70 -38 -72 -38 -2 0 -34 -17 -72 -38 -37
-22 -108 -60 -158 -87 -49 -26 -137 -73 -195 -105 -58 -31 -141 -77 -185 -100
-44 -24 -98 -54 -120 -66 -22 -13 -49 -28 -60 -33 -25 -11 -464 -248 -485
-261 -8 -5 -31 -17 -50 -27 -19 -9 -60 -31 -90 -49 -30 -17 -102 -56 -160 -87
-58 -30 -134 -71 -168 -91 -35 -20 -66 -36 -68 -36 -2 0 -68 -35 -146 -79
-402 -221 -406 -223 -480 -224 -70 -1 -90 6 -265 104 -57 31 -103 55 -103 52
0 -2 -12 4 -27 15 -16 10 -73 43 -128 72 -120 63 -199 106 -240 130 -16 9 -73
40 -125 68 -53 27 -204 108 -335 180 -132 71 -271 146 -310 167 -38 20 -124
67 -190 102 -168 91 -228 124 -320 173 -44 24 -159 85 -255 138 -96 52 -204
110 -240 130 -323 174 -359 195 -393 231 -72 76 -67 -52 -64 1659 l2 1537 27
46 c35 60 61 78 258 184 246 131 290 155 345 185 28 15 82 44 120 65 39 21 93
50 120 65 28 15 95 51 150 80 55 29 105 56 110 60 6 4 64 36 130 70 66 34 125
66 130 70 6 4 53 30 105 57 52 28 145 77 205 110 61 33 146 79 190 103 44 23
161 87 260 140 99 53 216 116 260 140 82 44 157 84 235 128 25 13 101 54 169
89 185 97 168 100 552 -106z"/>
<path d="M3385 6494 c-38 -20 -117 -62 -175 -94 -58 -31 -154 -83 -215 -115
-60 -32 -123 -65 -140 -75 -16 -10 -64 -35 -105 -57 -41 -22 -111 -60 -155
-83 -44 -24 -186 -100 -315 -170 -129 -70 -275 -149 -325 -175 -49 -26 -144
-77 -210 -113 -66 -35 -154 -83 -195 -105 -41 -22 -97 -52 -125 -67 -45 -25
-172 -93 -395 -213 -299 -160 -315 -170 -348 -225 l-27 -47 0 -1480 0 -1480
28 -47 c15 -26 40 -56 55 -67 30 -21 46 -30 307 -170 94 -50 177 -96 185 -101
8 -6 22 -13 30 -17 8 -4 258 -138 555 -298 297 -161 590 -318 650 -350 61 -32
115 -61 120 -65 6 -4 46 -26 90 -50 44 -24 103 -55 130 -70 28 -15 115 -62
195 -105 80 -43 165 -89 190 -103 224 -123 253 -136 311 -136 61 0 100 16 266
108 43 24 114 62 158 86 44 24 103 55 130 70 28 15 77 42 110 60 71 38 162 88
225 123 25 13 81 44 125 67 44 23 107 57 140 75 33 18 87 47 120 65 90 48 169
91 364 197 97 52 203 110 236 128 137 74 314 169 365 197 71 39 155 85 255
138 289 155 305 166 333 245 18 48 19 121 17 1510 -1 1612 4 1495 -65 1562
-27 26 -153 98 -515 293 -147 80 -200 109 -365 198 -96 52 -203 110 -237 128
-141 76 -201 108 -483 261 -162 88 -335 182 -385 208 -49 26 -121 65 -158 87
-38 21 -70 38 -72 38 -2 0 -34 17 -72 38 -92 52 -208 114 -328 177 -132 68
-179 71 -280 19z"/>
</g>
</svg>
