<?xml version="1.0" encoding="utf-8"?>
<!-- Generator: Adobe Illustrator 19.2.0, SVG Export Plug-In . SVG Version: 6.00 Build 0)  -->
<svg version="1.1" id="Laag_1" xmlns="http://www.w3.org/2000/svg" xmlns:xlink="http://www.w3.org/1999/xlink" x="0px" y="0px"
	 viewBox="0 0 100 100" style="enable-background:new 0 0 100 100;" xml:space="preserve">
<path d="M88.92,20.81H11.08c-5.35,0-9.73-4.38-9.73-9.73v0c0-5.35,4.38-9.73,9.73-9.73h77.84c5.35,0,9.73,4.38,9.73,9.73v0
	C98.65,16.43,94.27,20.81,88.92,20.81z"/>
<path d="M88.92,59.73H11.08c-5.35,0-9.73-4.38-9.73-9.73v0c0-5.35,4.38-9.73,9.73-9.73h77.84c5.35,0,9.73,4.38,9.73,9.73v0
	C98.65,55.35,94.27,59.73,88.92,59.73z"/>
<path d="M88.92,98.65H11.08c-5.35,0-9.73-4.38-9.73-9.73v0c0-5.35,4.38-9.73,9.73-9.73h77.84c5.35,0,9.73,4.38,9.73,9.73v0
	C98.65,94.27,94.27,98.65,88.92,98.65z"/>
</svg>
